<mxfile host="65bd71144e">
    <diagram id="35rbz2cMFURh9ewFK-A6" name="Page-1">
        <mxGraphModel dx="1056" dy="782" grid="1" gridSize="10" guides="1" tooltips="1" connect="1" arrows="1" fold="1" page="1" pageScale="1" pageWidth="850" pageHeight="1100" background="#ffffff" math="0" shadow="0">
            <root>
                <mxCell id="0"/>
                <mxCell id="1" parent="0"/>
                <mxCell id="2" value="CacherModel" style="swimlane;whiteSpace=wrap;html=1;fillColor=#6a00ff;fontColor=#ffffff;strokeColor=#3700CC;strokeWidth=2;" parent="1" vertex="1">
                    <mxGeometry x="140" y="180" width="460" height="190" as="geometry"/>
                </mxCell>
                <mxCell id="3" value="Resbonsipilities" style="swimlane;fontStyle=0;childLayout=stackLayout;horizontal=1;startSize=30;horizontalStack=0;resizeParent=1;resizeParentMax=0;resizeLast=0;collapsible=1;marginBottom=0;whiteSpace=wrap;html=1;strokeWidth=2;fillColor=#0050ef;fontColor=#ffffff;strokeColor=#001DBC;" parent="2" vertex="1">
                    <mxGeometry x="10" y="30" width="430" height="60" as="geometry"/>
                </mxCell>
                <mxCell id="5" value="&lt;span style=&quot;color: rgb(0, 0, 0); font-size: 15px;&quot;&gt;Deal with cacher table in project DB&lt;/span&gt;&lt;font color=&quot;#000000&quot; style=&quot;font-size: 15px;&quot;&gt;&lt;br style=&quot;font-size: 15px;&quot;&gt;&lt;/font&gt;" style="text;strokeColor=#4C0099;fillColor=none;align=left;verticalAlign=middle;spacingLeft=4;spacingRight=4;overflow=hidden;points=[[0,0.5],[1,0.5]];portConstraint=eastwest;rotatable=0;whiteSpace=wrap;html=1;strokeWidth=2;fontSize=15;" parent="3" vertex="1">
                    <mxGeometry y="30" width="430" height="30" as="geometry"/>
                </mxCell>
                <mxCell id="7" value="Collaborators" style="swimlane;fontStyle=0;childLayout=stackLayout;horizontal=1;startSize=30;horizontalStack=0;resizeParent=1;resizeParentMax=0;resizeLast=0;collapsible=1;marginBottom=0;whiteSpace=wrap;html=1;strokeWidth=2;fillColor=#1ba1e2;fontColor=#ffffff;strokeColor=#006EAF;" parent="2" vertex="1">
                    <mxGeometry x="10" y="110" width="430" height="60" as="geometry"/>
                </mxCell>
                <mxCell id="16" value="OrderModel" style="swimlane;whiteSpace=wrap;html=1;fillColor=#6a00ff;fontColor=#ffffff;strokeColor=#3700CC;strokeWidth=2;" vertex="1" parent="1">
                    <mxGeometry x="140" y="430" width="460" height="260" as="geometry"/>
                </mxCell>
                <mxCell id="17" value="Resbonsipilities" style="swimlane;fontStyle=0;childLayout=stackLayout;horizontal=1;startSize=30;horizontalStack=0;resizeParent=1;resizeParentMax=0;resizeLast=0;collapsible=1;marginBottom=0;whiteSpace=wrap;html=1;strokeWidth=2;fillColor=#0050ef;fontColor=#ffffff;strokeColor=#001DBC;" vertex="1" parent="16">
                    <mxGeometry x="10" y="50" width="430" height="90" as="geometry"/>
                </mxCell>
                <mxCell id="18" value="&lt;font color=&quot;#000000&quot; style=&quot;font-size: 15px;&quot;&gt;Deal with order table in project DB&lt;br style=&quot;font-size: 15px;&quot;&gt;&lt;/font&gt;" style="text;strokeColor=#4C0099;fillColor=none;align=left;verticalAlign=middle;spacingLeft=4;spacingRight=4;overflow=hidden;points=[[0,0.5],[1,0.5]];portConstraint=eastwest;rotatable=0;whiteSpace=wrap;html=1;strokeWidth=2;fontSize=15;" vertex="1" parent="17">
                    <mxGeometry y="30" width="430" height="30" as="geometry"/>
                </mxCell>
                <mxCell id="26" value="&lt;font color=&quot;#000000&quot; style=&quot;font-size: 15px;&quot;&gt;Update MakeOrderUI&lt;br style=&quot;font-size: 15px;&quot;&gt;&lt;/font&gt;" style="text;strokeColor=#4C0099;fillColor=none;align=left;verticalAlign=middle;spacingLeft=4;spacingRight=4;overflow=hidden;points=[[0,0.5],[1,0.5]];portConstraint=eastwest;rotatable=0;whiteSpace=wrap;html=1;strokeWidth=2;fontSize=15;" vertex="1" parent="17">
                    <mxGeometry y="60" width="430" height="30" as="geometry"/>
                </mxCell>
                <mxCell id="19" value="Collaborators" style="swimlane;fontStyle=0;childLayout=stackLayout;horizontal=1;startSize=30;horizontalStack=0;resizeParent=1;resizeParentMax=0;resizeLast=0;collapsible=1;marginBottom=0;whiteSpace=wrap;html=1;strokeWidth=2;fillColor=#1ba1e2;fontColor=#ffffff;strokeColor=#006EAF;" vertex="1" parent="16">
                    <mxGeometry x="10" y="170" width="430" height="60" as="geometry"/>
                </mxCell>
                <mxCell id="31" value="ProductModel" style="swimlane;whiteSpace=wrap;html=1;fillColor=#6a00ff;fontColor=#ffffff;strokeColor=#3700CC;strokeWidth=2;" vertex="1" parent="1">
                    <mxGeometry x="140" y="710" width="460" height="260" as="geometry"/>
                </mxCell>
                <mxCell id="32" value="Resbonsipilities" style="swimlane;fontStyle=0;childLayout=stackLayout;horizontal=1;startSize=30;horizontalStack=0;resizeParent=1;resizeParentMax=0;resizeLast=0;collapsible=1;marginBottom=0;whiteSpace=wrap;html=1;strokeWidth=2;fillColor=#0050ef;fontColor=#ffffff;strokeColor=#001DBC;" vertex="1" parent="31">
                    <mxGeometry x="10" y="50" width="430" height="60" as="geometry"/>
                </mxCell>
                <mxCell id="33" value="&lt;font color=&quot;#000000&quot; style=&quot;font-size: 15px;&quot;&gt;Deal with product table in project DB&lt;br style=&quot;font-size: 15px;&quot;&gt;&lt;/font&gt;" style="text;strokeColor=#4C0099;fillColor=none;align=left;verticalAlign=middle;spacingLeft=4;spacingRight=4;overflow=hidden;points=[[0,0.5],[1,0.5]];portConstraint=eastwest;rotatable=0;whiteSpace=wrap;html=1;strokeWidth=2;fontSize=15;" vertex="1" parent="32">
                    <mxGeometry y="30" width="430" height="30" as="geometry"/>
                </mxCell>
                <mxCell id="35" value="Collaborators" style="swimlane;fontStyle=0;childLayout=stackLayout;horizontal=1;startSize=30;horizontalStack=0;resizeParent=1;resizeParentMax=0;resizeLast=0;collapsible=1;marginBottom=0;whiteSpace=wrap;html=1;strokeWidth=2;fillColor=#1ba1e2;fontColor=#ffffff;strokeColor=#006EAF;" vertex="1" parent="31">
                    <mxGeometry x="10" y="170" width="430" height="60" as="geometry"/>
                </mxCell>
                <mxCell id="36" value="&lt;font color=&quot;#000000&quot; style=&quot;font-size: 15px;&quot;&gt;MakeOrderUI&lt;br style=&quot;font-size: 15px;&quot;&gt;&lt;/font&gt;" style="text;strokeColor=#4C0099;fillColor=none;align=left;verticalAlign=middle;spacingLeft=4;spacingRight=4;overflow=hidden;points=[[0,0.5],[1,0.5]];portConstraint=eastwest;rotatable=0;whiteSpace=wrap;html=1;strokeWidth=2;fontSize=15;" vertex="1" parent="35">
                    <mxGeometry y="30" width="430" height="30" as="geometry"/>
                </mxCell>
                <mxCell id="37" value="CacherController" style="swimlane;whiteSpace=wrap;html=1;fillColor=#6a00ff;fontColor=#ffffff;strokeColor=#3700CC;strokeWidth=2;" vertex="1" parent="1">
                    <mxGeometry x="660" y="180" width="460" height="230" as="geometry"/>
                </mxCell>
                <mxCell id="38" value="Resbonsipilities" style="swimlane;fontStyle=0;childLayout=stackLayout;horizontal=1;startSize=30;horizontalStack=0;resizeParent=1;resizeParentMax=0;resizeLast=0;collapsible=1;marginBottom=0;whiteSpace=wrap;html=1;strokeWidth=2;fillColor=#0050ef;fontColor=#ffffff;strokeColor=#001DBC;" vertex="1" parent="37">
                    <mxGeometry x="10" y="30" width="430" height="90" as="geometry"/>
                </mxCell>
                <mxCell id="39" value="&lt;span style=&quot;color: rgb(0, 0, 0); font-size: 15px;&quot;&gt;Deal with cacher table in project DB&lt;/span&gt;&lt;font color=&quot;#000000&quot; style=&quot;font-size: 15px;&quot;&gt;&lt;br style=&quot;font-size: 15px;&quot;&gt;&lt;/font&gt;" style="text;strokeColor=#4C0099;fillColor=none;align=left;verticalAlign=middle;spacingLeft=4;spacingRight=4;overflow=hidden;points=[[0,0.5],[1,0.5]];portConstraint=eastwest;rotatable=0;whiteSpace=wrap;html=1;strokeWidth=2;fontSize=15;" vertex="1" parent="38">
                    <mxGeometry y="30" width="430" height="30" as="geometry"/>
                </mxCell>
                <mxCell id="40" value="&lt;span style=&quot;color: rgb(0, 0, 0); font-size: 15px;&quot;&gt;Sign Cacher&lt;/span&gt;&lt;font color=&quot;#000000&quot; style=&quot;font-size: 15px;&quot;&gt;&lt;br style=&quot;font-size: 15px;&quot;&gt;&lt;/font&gt;" style="text;strokeColor=#4C0099;fillColor=none;align=left;verticalAlign=middle;spacingLeft=4;spacingRight=4;overflow=hidden;points=[[0,0.5],[1,0.5]];portConstraint=eastwest;rotatable=0;whiteSpace=wrap;html=1;strokeWidth=2;fontSize=15;" vertex="1" parent="38">
                    <mxGeometry y="60" width="430" height="30" as="geometry"/>
                </mxCell>
                <mxCell id="42" value="Collaborators" style="swimlane;fontStyle=0;childLayout=stackLayout;horizontal=1;startSize=30;horizontalStack=0;resizeParent=1;resizeParentMax=0;resizeLast=0;collapsible=1;marginBottom=0;whiteSpace=wrap;html=1;strokeWidth=2;fillColor=#1ba1e2;fontColor=#ffffff;strokeColor=#006EAF;" vertex="1" parent="37">
                    <mxGeometry x="10" y="160" width="430" height="60" as="geometry"/>
                </mxCell>
                <mxCell id="43" value="&lt;font color=&quot;#000000&quot; style=&quot;font-size: 15px;&quot;&gt;CacherModel&lt;br style=&quot;font-size: 15px;&quot;&gt;&lt;/font&gt;" style="text;strokeColor=#4C0099;fillColor=none;align=left;verticalAlign=middle;spacingLeft=4;spacingRight=4;overflow=hidden;points=[[0,0.5],[1,0.5]];portConstraint=eastwest;rotatable=0;whiteSpace=wrap;html=1;strokeWidth=2;fontSize=15;labelBorderColor=default;" vertex="1" parent="42">
                    <mxGeometry y="30" width="430" height="30" as="geometry"/>
                </mxCell>
                <mxCell id="44" value="OrderController" style="swimlane;whiteSpace=wrap;html=1;fillColor=#6a00ff;fontColor=#ffffff;strokeColor=#3700CC;strokeWidth=2;" vertex="1" parent="1">
                    <mxGeometry x="660" y="430" width="460" height="230" as="geometry"/>
                </mxCell>
                <mxCell id="45" value="Resbonsipilities" style="swimlane;fontStyle=0;childLayout=stackLayout;horizontal=1;startSize=30;horizontalStack=0;resizeParent=1;resizeParentMax=0;resizeLast=0;collapsible=1;marginBottom=0;whiteSpace=wrap;html=1;strokeWidth=2;fillColor=#0050ef;fontColor=#ffffff;strokeColor=#001DBC;" vertex="1" parent="44">
                    <mxGeometry x="10" y="30" width="430" height="60" as="geometry"/>
                </mxCell>
                <mxCell id="46" value="&lt;span style=&quot;color: rgb(0, 0, 0); font-size: 15px;&quot;&gt;Deal with order and order_details tables in project DB&lt;/span&gt;&lt;font color=&quot;#000000&quot; style=&quot;font-size: 15px;&quot;&gt;&lt;br style=&quot;font-size: 15px;&quot;&gt;&lt;/font&gt;" style="text;strokeColor=#4C0099;fillColor=none;align=left;verticalAlign=middle;spacingLeft=4;spacingRight=4;overflow=hidden;points=[[0,0.5],[1,0.5]];portConstraint=eastwest;rotatable=0;whiteSpace=wrap;html=1;strokeWidth=2;fontSize=15;" vertex="1" parent="45">
                    <mxGeometry y="30" width="430" height="30" as="geometry"/>
                </mxCell>
                <mxCell id="48" value="Collaborators" style="swimlane;fontStyle=0;childLayout=stackLayout;horizontal=1;startSize=30;horizontalStack=0;resizeParent=1;resizeParentMax=0;resizeLast=0;collapsible=1;marginBottom=0;whiteSpace=wrap;html=1;strokeWidth=2;fillColor=#1ba1e2;fontColor=#ffffff;strokeColor=#006EAF;" vertex="1" parent="44">
                    <mxGeometry x="10" y="160" width="430" height="60" as="geometry"/>
                </mxCell>
                <mxCell id="49" value="&lt;font color=&quot;#000000&quot; style=&quot;font-size: 15px;&quot;&gt;OrderModel&lt;br style=&quot;font-size: 15px;&quot;&gt;&lt;/font&gt;" style="text;strokeColor=#4C0099;fillColor=none;align=left;verticalAlign=middle;spacingLeft=4;spacingRight=4;overflow=hidden;points=[[0,0.5],[1,0.5]];portConstraint=eastwest;rotatable=0;whiteSpace=wrap;html=1;strokeWidth=2;fontSize=15;labelBorderColor=default;" vertex="1" parent="48">
                    <mxGeometry y="30" width="430" height="30" as="geometry"/>
                </mxCell>
                <mxCell id="50" value="ProductController" style="swimlane;whiteSpace=wrap;html=1;fillColor=#6a00ff;fontColor=#ffffff;strokeColor=#3700CC;strokeWidth=2;" vertex="1" parent="1">
                    <mxGeometry x="670" y="710" width="460" height="230" as="geometry"/>
                </mxCell>
                <mxCell id="51" value="Resbonsipilities" style="swimlane;fontStyle=0;childLayout=stackLayout;horizontal=1;startSize=30;horizontalStack=0;resizeParent=1;resizeParentMax=0;resizeLast=0;collapsible=1;marginBottom=0;whiteSpace=wrap;html=1;strokeWidth=2;fillColor=#0050ef;fontColor=#ffffff;strokeColor=#001DBC;" vertex="1" parent="50">
                    <mxGeometry x="10" y="30" width="430" height="60" as="geometry"/>
                </mxCell>
                <mxCell id="52" value="&lt;span style=&quot;color: rgb(0, 0, 0); font-size: 15px;&quot;&gt;Deal with products table in project DB&lt;/span&gt;&lt;font color=&quot;#000000&quot; style=&quot;font-size: 15px;&quot;&gt;&lt;br style=&quot;font-size: 15px;&quot;&gt;&lt;/font&gt;" style="text;strokeColor=#4C0099;fillColor=none;align=left;verticalAlign=middle;spacingLeft=4;spacingRight=4;overflow=hidden;points=[[0,0.5],[1,0.5]];portConstraint=eastwest;rotatable=0;whiteSpace=wrap;html=1;strokeWidth=2;fontSize=15;" vertex="1" parent="51">
                    <mxGeometry y="30" width="430" height="30" as="geometry"/>
                </mxCell>
                <mxCell id="53" value="Collaborators" style="swimlane;fontStyle=0;childLayout=stackLayout;horizontal=1;startSize=30;horizontalStack=0;resizeParent=1;resizeParentMax=0;resizeLast=0;collapsible=1;marginBottom=0;whiteSpace=wrap;html=1;strokeWidth=2;fillColor=#1ba1e2;fontColor=#ffffff;strokeColor=#006EAF;" vertex="1" parent="50">
                    <mxGeometry x="10" y="160" width="430" height="60" as="geometry"/>
                </mxCell>
                <mxCell id="54" value="&lt;font color=&quot;#000000&quot; style=&quot;font-size: 15px;&quot;&gt;ProductModel&lt;br style=&quot;font-size: 15px;&quot;&gt;&lt;/font&gt;" style="text;strokeColor=#4C0099;fillColor=none;align=left;verticalAlign=middle;spacingLeft=4;spacingRight=4;overflow=hidden;points=[[0,0.5],[1,0.5]];portConstraint=eastwest;rotatable=0;whiteSpace=wrap;html=1;strokeWidth=2;fontSize=15;labelBorderColor=default;" vertex="1" parent="53">
                    <mxGeometry y="30" width="430" height="30" as="geometry"/>
                </mxCell>
                <mxCell id="55" value="AnalaticsController" style="swimlane;whiteSpace=wrap;html=1;fillColor=#6a00ff;fontColor=#ffffff;strokeColor=#3700CC;strokeWidth=2;" vertex="1" parent="1">
                    <mxGeometry x="1170" y="320" width="460" height="230" as="geometry"/>
                </mxCell>
                <mxCell id="56" value="Resbonsipilities" style="swimlane;fontStyle=0;childLayout=stackLayout;horizontal=1;startSize=30;horizontalStack=0;resizeParent=1;resizeParentMax=0;resizeLast=0;collapsible=1;marginBottom=0;whiteSpace=wrap;html=1;strokeWidth=2;fillColor=#0050ef;fontColor=#ffffff;strokeColor=#001DBC;" vertex="1" parent="55">
                    <mxGeometry x="10" y="30" width="430" height="60" as="geometry"/>
                </mxCell>
                <mxCell id="57" value="&lt;font color=&quot;#000000&quot; style=&quot;font-size: 15px;&quot;&gt;Make a specific rquests for (cachers and orders) tables&lt;br style=&quot;font-size: 15px;&quot;&gt;&lt;/font&gt;" style="text;strokeColor=#4C0099;fillColor=none;align=left;verticalAlign=middle;spacingLeft=4;spacingRight=4;overflow=hidden;points=[[0,0.5],[1,0.5]];portConstraint=eastwest;rotatable=0;whiteSpace=wrap;html=1;strokeWidth=2;fontSize=15;" vertex="1" parent="56">
                    <mxGeometry y="30" width="430" height="30" as="geometry"/>
                </mxCell>
                <mxCell id="59" value="Collaborators" style="swimlane;fontStyle=0;childLayout=stackLayout;horizontal=1;startSize=30;horizontalStack=0;resizeParent=1;resizeParentMax=0;resizeLast=0;collapsible=1;marginBottom=0;whiteSpace=wrap;html=1;strokeWidth=2;fillColor=#1ba1e2;fontColor=#ffffff;strokeColor=#006EAF;" vertex="1" parent="55">
                    <mxGeometry x="10" y="120" width="430" height="90" as="geometry"/>
                </mxCell>
                <mxCell id="60" value="&lt;font color=&quot;#000000&quot; style=&quot;font-size: 15px;&quot;&gt;CacherController&lt;br style=&quot;font-size: 15px;&quot;&gt;&lt;/font&gt;" style="text;strokeColor=#4C0099;fillColor=none;align=left;verticalAlign=middle;spacingLeft=4;spacingRight=4;overflow=hidden;points=[[0,0.5],[1,0.5]];portConstraint=eastwest;rotatable=0;whiteSpace=wrap;html=1;strokeWidth=2;fontSize=15;labelBorderColor=default;" vertex="1" parent="59">
                    <mxGeometry y="30" width="430" height="30" as="geometry"/>
                </mxCell>
                <mxCell id="61" value="&lt;font color=&quot;#000000&quot; style=&quot;font-size: 15px;&quot;&gt;OrderController&lt;br style=&quot;font-size: 15px;&quot;&gt;&lt;/font&gt;" style="text;strokeColor=#4C0099;fillColor=none;align=left;verticalAlign=middle;spacingLeft=4;spacingRight=4;overflow=hidden;points=[[0,0.5],[1,0.5]];portConstraint=eastwest;rotatable=0;whiteSpace=wrap;html=1;strokeWidth=2;fontSize=15;labelBorderColor=default;" vertex="1" parent="59">
                    <mxGeometry y="60" width="430" height="30" as="geometry"/>
                </mxCell>
                <mxCell id="62" value="MakeOrderControllerController" style="swimlane;whiteSpace=wrap;html=1;fillColor=#6a00ff;fontColor=#ffffff;strokeColor=#3700CC;strokeWidth=2;" vertex="1" parent="1">
                    <mxGeometry x="1170" y="610" width="460" height="230" as="geometry"/>
                </mxCell>
                <mxCell id="63" value="Resbonsipilities" style="swimlane;fontStyle=0;childLayout=stackLayout;horizontal=1;startSize=30;horizontalStack=0;resizeParent=1;resizeParentMax=0;resizeLast=0;collapsible=1;marginBottom=0;whiteSpace=wrap;html=1;strokeWidth=2;fillColor=#0050ef;fontColor=#ffffff;strokeColor=#001DBC;" vertex="1" parent="62">
                    <mxGeometry x="10" y="30" width="430" height="60" as="geometry"/>
                </mxCell>
                <mxCell id="64" value="&lt;font color=&quot;#000000&quot; style=&quot;font-size: 15px;&quot;&gt;Make a specific rquests for (products and orders) tables&lt;br style=&quot;font-size: 15px;&quot;&gt;&lt;/font&gt;" style="text;strokeColor=#4C0099;fillColor=none;align=left;verticalAlign=middle;spacingLeft=4;spacingRight=4;overflow=hidden;points=[[0,0.5],[1,0.5]];portConstraint=eastwest;rotatable=0;whiteSpace=wrap;html=1;strokeWidth=2;fontSize=15;" vertex="1" parent="63">
                    <mxGeometry y="30" width="430" height="30" as="geometry"/>
                </mxCell>
                <mxCell id="65" value="Collaborators" style="swimlane;fontStyle=0;childLayout=stackLayout;horizontal=1;startSize=30;horizontalStack=0;resizeParent=1;resizeParentMax=0;resizeLast=0;collapsible=1;marginBottom=0;whiteSpace=wrap;html=1;strokeWidth=2;fillColor=#1ba1e2;fontColor=#ffffff;strokeColor=#006EAF;" vertex="1" parent="62">
                    <mxGeometry x="10" y="120" width="430" height="90" as="geometry"/>
                </mxCell>
                <mxCell id="66" value="&lt;font color=&quot;#000000&quot; style=&quot;font-size: 15px;&quot;&gt;ProductController&lt;br style=&quot;font-size: 15px;&quot;&gt;&lt;/font&gt;" style="text;strokeColor=#4C0099;fillColor=none;align=left;verticalAlign=middle;spacingLeft=4;spacingRight=4;overflow=hidden;points=[[0,0.5],[1,0.5]];portConstraint=eastwest;rotatable=0;whiteSpace=wrap;html=1;strokeWidth=2;fontSize=15;labelBorderColor=default;" vertex="1" parent="65">
                    <mxGeometry y="30" width="430" height="30" as="geometry"/>
                </mxCell>
                <mxCell id="67" value="&lt;font color=&quot;#000000&quot; style=&quot;font-size: 15px;&quot;&gt;OrderController&lt;br style=&quot;font-size: 15px;&quot;&gt;&lt;/font&gt;" style="text;strokeColor=#4C0099;fillColor=none;align=left;verticalAlign=middle;spacingLeft=4;spacingRight=4;overflow=hidden;points=[[0,0.5],[1,0.5]];portConstraint=eastwest;rotatable=0;whiteSpace=wrap;html=1;strokeWidth=2;fontSize=15;labelBorderColor=default;" vertex="1" parent="65">
                    <mxGeometry y="60" width="430" height="30" as="geometry"/>
                </mxCell>
                <mxCell id="68" value="CacherSignUI" style="swimlane;whiteSpace=wrap;html=1;fillColor=#6a00ff;fontColor=#ffffff;strokeColor=#3700CC;strokeWidth=2;" vertex="1" parent="1">
                    <mxGeometry x="1700" y="150" width="460" height="260" as="geometry"/>
                </mxCell>
                <mxCell id="69" value="Resbonsipilities" style="swimlane;fontStyle=0;childLayout=stackLayout;horizontal=1;startSize=30;horizontalStack=0;resizeParent=1;resizeParentMax=0;resizeLast=0;collapsible=1;marginBottom=0;whiteSpace=wrap;html=1;strokeWidth=2;fillColor=#0050ef;fontColor=#ffffff;strokeColor=#001DBC;" vertex="1" parent="68">
                    <mxGeometry x="10" y="30" width="430" height="120" as="geometry"/>
                </mxCell>
                <mxCell id="74" value="&lt;span style=&quot;color: rgb(0, 0, 0); font-size: 15px;&quot;&gt;Register/Signing process&lt;/span&gt;&lt;font color=&quot;#000000&quot; style=&quot;font-size: 15px;&quot;&gt;&lt;br style=&quot;font-size: 15px;&quot;&gt;&lt;/font&gt;" style="text;strokeColor=#4C0099;fillColor=none;align=left;verticalAlign=middle;spacingLeft=4;spacingRight=4;overflow=hidden;points=[[0,0.5],[1,0.5]];portConstraint=eastwest;rotatable=0;whiteSpace=wrap;html=1;strokeWidth=2;fontSize=15;" vertex="1" parent="69">
                    <mxGeometry y="30" width="430" height="30" as="geometry"/>
                </mxCell>
                <mxCell id="70" value="&lt;span style=&quot;color: rgb(0, 0, 0); font-size: 15px;&quot;&gt;Create The UI of user signing process&lt;/span&gt;&lt;font color=&quot;#000000&quot; style=&quot;font-size: 15px;&quot;&gt;&lt;br style=&quot;font-size: 15px;&quot;&gt;&lt;/font&gt;" style="text;strokeColor=#4C0099;fillColor=none;align=left;verticalAlign=middle;spacingLeft=4;spacingRight=4;overflow=hidden;points=[[0,0.5],[1,0.5]];portConstraint=eastwest;rotatable=0;whiteSpace=wrap;html=1;strokeWidth=2;fontSize=15;" vertex="1" parent="69">
                    <mxGeometry y="60" width="430" height="30" as="geometry"/>
                </mxCell>
                <mxCell id="71" value="&lt;span style=&quot;color: rgb(0, 0, 0); font-size: 15px;&quot;&gt;Move the cacher to services UI.&lt;/span&gt;&lt;font color=&quot;#000000&quot; style=&quot;font-size: 15px;&quot;&gt;&lt;br style=&quot;font-size: 15px;&quot;&gt;&lt;/font&gt;" style="text;strokeColor=#4C0099;fillColor=none;align=left;verticalAlign=middle;spacingLeft=4;spacingRight=4;overflow=hidden;points=[[0,0.5],[1,0.5]];portConstraint=eastwest;rotatable=0;whiteSpace=wrap;html=1;strokeWidth=2;fontSize=15;" vertex="1" parent="69">
                    <mxGeometry y="90" width="430" height="30" as="geometry"/>
                </mxCell>
                <mxCell id="72" value="Collaborators" style="swimlane;fontStyle=0;childLayout=stackLayout;horizontal=1;startSize=30;horizontalStack=0;resizeParent=1;resizeParentMax=0;resizeLast=0;collapsible=1;marginBottom=0;whiteSpace=wrap;html=1;strokeWidth=2;fillColor=#1ba1e2;fontColor=#ffffff;strokeColor=#006EAF;" vertex="1" parent="68">
                    <mxGeometry x="10" y="160" width="430" height="90" as="geometry"/>
                </mxCell>
                <mxCell id="73" value="&lt;font color=&quot;#000000&quot; style=&quot;font-size: 15px;&quot;&gt;CacherController&lt;br style=&quot;font-size: 15px;&quot;&gt;&lt;/font&gt;" style="text;strokeColor=#4C0099;fillColor=none;align=left;verticalAlign=middle;spacingLeft=4;spacingRight=4;overflow=hidden;points=[[0,0.5],[1,0.5]];portConstraint=eastwest;rotatable=0;whiteSpace=wrap;html=1;strokeWidth=2;fontSize=15;labelBorderColor=default;" vertex="1" parent="72">
                    <mxGeometry y="30" width="430" height="30" as="geometry"/>
                </mxCell>
                <mxCell id="82" value="&lt;font color=&quot;#000000&quot; style=&quot;font-size: 15px;&quot;&gt;ServicesUI&lt;br style=&quot;font-size: 15px;&quot;&gt;&lt;/font&gt;" style="text;strokeColor=#4C0099;fillColor=none;align=left;verticalAlign=middle;spacingLeft=4;spacingRight=4;overflow=hidden;points=[[0,0.5],[1,0.5]];portConstraint=eastwest;rotatable=0;whiteSpace=wrap;html=1;strokeWidth=2;fontSize=15;labelBorderColor=default;" vertex="1" parent="72">
                    <mxGeometry y="60" width="430" height="30" as="geometry"/>
                </mxCell>
                <mxCell id="75" value="ReceiptUI" style="swimlane;whiteSpace=wrap;html=1;fillColor=#6a00ff;fontColor=#ffffff;strokeColor=#3700CC;strokeWidth=2;" vertex="1" parent="1">
                    <mxGeometry x="2790" y="660" width="460" height="260" as="geometry"/>
                </mxCell>
                <mxCell id="76" value="Resbonsipilities" style="swimlane;fontStyle=0;childLayout=stackLayout;horizontal=1;startSize=30;horizontalStack=0;resizeParent=1;resizeParentMax=0;resizeLast=0;collapsible=1;marginBottom=0;whiteSpace=wrap;html=1;strokeWidth=2;fillColor=#0050ef;fontColor=#ffffff;strokeColor=#001DBC;" vertex="1" parent="75">
                    <mxGeometry x="10" y="30" width="430" height="120" as="geometry"/>
                </mxCell>
                <mxCell id="78" value="&lt;span style=&quot;color: rgb(0, 0, 0); font-size: 15px;&quot;&gt;Create The UI for summurize client order&lt;/span&gt;&lt;font color=&quot;#000000&quot; style=&quot;font-size: 15px;&quot;&gt;&lt;br style=&quot;font-size: 15px;&quot;&gt;&lt;/font&gt;" style="text;strokeColor=#4C0099;fillColor=none;align=left;verticalAlign=middle;spacingLeft=4;spacingRight=4;overflow=hidden;points=[[0,0.5],[1,0.5]];portConstraint=eastwest;rotatable=0;whiteSpace=wrap;html=1;strokeWidth=2;fontSize=15;" vertex="1" parent="76">
                    <mxGeometry y="30" width="430" height="30" as="geometry"/>
                </mxCell>
                <mxCell id="92" value="&lt;span style=&quot;color: rgb(0, 0, 0); font-size: 15px;&quot;&gt;Give the applity to the cacher to print the receipt&lt;/span&gt;&lt;font color=&quot;#000000&quot; style=&quot;font-size: 15px;&quot;&gt;&lt;br style=&quot;font-size: 15px;&quot;&gt;&lt;/font&gt;" style="text;strokeColor=#4C0099;fillColor=none;align=left;verticalAlign=middle;spacingLeft=4;spacingRight=4;overflow=hidden;points=[[0,0.5],[1,0.5]];portConstraint=eastwest;rotatable=0;whiteSpace=wrap;html=1;strokeWidth=2;fontSize=15;" vertex="1" parent="76">
                    <mxGeometry y="60" width="430" height="30" as="geometry"/>
                </mxCell>
                <mxCell id="79" value="&lt;span style=&quot;color: rgb(0, 0, 0); font-size: 15px;&quot;&gt;Back the cacher to MakeOrder Ui&lt;/span&gt;&lt;font color=&quot;#000000&quot; style=&quot;font-size: 15px;&quot;&gt;&lt;br style=&quot;font-size: 15px;&quot;&gt;&lt;/font&gt;" style="text;strokeColor=#4C0099;fillColor=none;align=left;verticalAlign=middle;spacingLeft=4;spacingRight=4;overflow=hidden;points=[[0,0.5],[1,0.5]];portConstraint=eastwest;rotatable=0;whiteSpace=wrap;html=1;strokeWidth=2;fontSize=15;" vertex="1" parent="76">
                    <mxGeometry y="90" width="430" height="30" as="geometry"/>
                </mxCell>
                <mxCell id="80" value="Collaborators" style="swimlane;fontStyle=0;childLayout=stackLayout;horizontal=1;startSize=30;horizontalStack=0;resizeParent=1;resizeParentMax=0;resizeLast=0;collapsible=1;marginBottom=0;whiteSpace=wrap;html=1;strokeWidth=2;fillColor=#1ba1e2;fontColor=#ffffff;strokeColor=#006EAF;" vertex="1" parent="75">
                    <mxGeometry x="10" y="160" width="430" height="90" as="geometry"/>
                </mxCell>
                <mxCell id="81" value="&lt;font color=&quot;#000000&quot; style=&quot;font-size: 15px;&quot;&gt;MakeOrderController&lt;br style=&quot;font-size: 15px;&quot;&gt;&lt;/font&gt;" style="text;strokeColor=#4C0099;fillColor=none;align=left;verticalAlign=middle;spacingLeft=4;spacingRight=4;overflow=hidden;points=[[0,0.5],[1,0.5]];portConstraint=eastwest;rotatable=0;whiteSpace=wrap;html=1;strokeWidth=2;fontSize=15;labelBorderColor=default;" vertex="1" parent="80">
                    <mxGeometry y="30" width="430" height="30" as="geometry"/>
                </mxCell>
                <mxCell id="84" value="&lt;font color=&quot;#000000&quot; style=&quot;font-size: 15px;&quot;&gt;MakeOrderUI&lt;br style=&quot;font-size: 15px;&quot;&gt;&lt;/font&gt;" style="text;strokeColor=#4C0099;fillColor=none;align=left;verticalAlign=middle;spacingLeft=4;spacingRight=4;overflow=hidden;points=[[0,0.5],[1,0.5]];portConstraint=eastwest;rotatable=0;whiteSpace=wrap;html=1;strokeWidth=2;fontSize=15;labelBorderColor=default;" vertex="1" parent="80">
                    <mxGeometry y="60" width="430" height="30" as="geometry"/>
                </mxCell>
                <mxCell id="85" value="ServicesUI" style="swimlane;whiteSpace=wrap;html=1;fillColor=#6a00ff;fontColor=#ffffff;strokeColor=#3700CC;strokeWidth=2;" vertex="1" parent="1">
                    <mxGeometry x="1700" y="460" width="460" height="260" as="geometry"/>
                </mxCell>
                <mxCell id="86" value="Resbonsipilities" style="swimlane;fontStyle=0;childLayout=stackLayout;horizontal=1;startSize=30;horizontalStack=0;resizeParent=1;resizeParentMax=0;resizeLast=0;collapsible=1;marginBottom=0;whiteSpace=wrap;html=1;strokeWidth=2;fillColor=#0050ef;fontColor=#ffffff;strokeColor=#001DBC;" vertex="1" parent="85">
                    <mxGeometry x="10" y="30" width="430" height="60" as="geometry"/>
                </mxCell>
                <mxCell id="87" value="&lt;span style=&quot;color: rgb(0, 0, 0); font-size: 15px;&quot;&gt;Create UI to move to the project services&lt;/span&gt;&lt;font color=&quot;#000000&quot; style=&quot;font-size: 15px;&quot;&gt;&lt;br style=&quot;font-size: 15px;&quot;&gt;&lt;/font&gt;" style="text;strokeColor=#4C0099;fillColor=none;align=left;verticalAlign=middle;spacingLeft=4;spacingRight=4;overflow=hidden;points=[[0,0.5],[1,0.5]];portConstraint=eastwest;rotatable=0;whiteSpace=wrap;html=1;strokeWidth=2;fontSize=15;" vertex="1" parent="86">
                    <mxGeometry y="30" width="430" height="30" as="geometry"/>
                </mxCell>
                <mxCell id="89" value="Collaborators" style="swimlane;fontStyle=0;childLayout=stackLayout;horizontal=1;startSize=30;horizontalStack=0;resizeParent=1;resizeParentMax=0;resizeLast=0;collapsible=1;marginBottom=0;whiteSpace=wrap;html=1;strokeWidth=2;fillColor=#1ba1e2;fontColor=#ffffff;strokeColor=#006EAF;" vertex="1" parent="85">
                    <mxGeometry x="10" y="160" width="430" height="90" as="geometry"/>
                </mxCell>
                <mxCell id="90" value="&lt;font color=&quot;#000000&quot; style=&quot;font-size: 15px;&quot;&gt;MakeOrderUI&lt;br style=&quot;font-size: 15px;&quot;&gt;&lt;/font&gt;" style="text;strokeColor=#4C0099;fillColor=none;align=left;verticalAlign=middle;spacingLeft=4;spacingRight=4;overflow=hidden;points=[[0,0.5],[1,0.5]];portConstraint=eastwest;rotatable=0;whiteSpace=wrap;html=1;strokeWidth=2;fontSize=15;labelBorderColor=default;" vertex="1" parent="89">
                    <mxGeometry y="30" width="430" height="30" as="geometry"/>
                </mxCell>
                <mxCell id="91" value="&lt;font color=&quot;#000000&quot; style=&quot;font-size: 15px;&quot;&gt;AnalaticsUI&lt;br style=&quot;font-size: 15px;&quot;&gt;&lt;/font&gt;" style="text;strokeColor=#4C0099;fillColor=none;align=left;verticalAlign=middle;spacingLeft=4;spacingRight=4;overflow=hidden;points=[[0,0.5],[1,0.5]];portConstraint=eastwest;rotatable=0;whiteSpace=wrap;html=1;strokeWidth=2;fontSize=15;labelBorderColor=default;" vertex="1" parent="89">
                    <mxGeometry y="60" width="430" height="30" as="geometry"/>
                </mxCell>
                <mxCell id="93" value="AnalaticsUI" style="swimlane;whiteSpace=wrap;html=1;fillColor=#6a00ff;fontColor=#ffffff;strokeColor=#3700CC;strokeWidth=2;" vertex="1" parent="1">
                    <mxGeometry x="2240" y="360" width="460" height="260" as="geometry"/>
                </mxCell>
                <mxCell id="94" value="Resbonsipilities" style="swimlane;fontStyle=0;childLayout=stackLayout;horizontal=1;startSize=30;horizontalStack=0;resizeParent=1;resizeParentMax=0;resizeLast=0;collapsible=1;marginBottom=0;whiteSpace=wrap;html=1;strokeWidth=2;fillColor=#0050ef;fontColor=#ffffff;strokeColor=#001DBC;" vertex="1" parent="93">
                    <mxGeometry x="10" y="30" width="430" height="110" as="geometry"/>
                </mxCell>
                <mxCell id="95" value="&lt;span style=&quot;color: rgb(0, 0, 0); font-size: 15px;&quot;&gt;Create UI display a table for total get mony for each cacher in last 30 days&lt;/span&gt;&lt;font color=&quot;#000000&quot; style=&quot;font-size: 15px;&quot;&gt;&lt;br style=&quot;font-size: 15px;&quot;&gt;&lt;/font&gt;" style="text;strokeColor=#4C0099;fillColor=none;align=left;verticalAlign=middle;spacingLeft=4;spacingRight=4;overflow=hidden;points=[[0,0.5],[1,0.5]];portConstraint=eastwest;rotatable=0;whiteSpace=wrap;html=1;strokeWidth=2;fontSize=15;" vertex="1" parent="94">
                    <mxGeometry y="30" width="430" height="40" as="geometry"/>
                </mxCell>
                <mxCell id="99" value="&lt;span style=&quot;color: rgb(0, 0, 0); font-size: 15px;&quot;&gt;Give ability to the cacher to go back to Services UI&lt;/span&gt;&lt;font color=&quot;#000000&quot; style=&quot;font-size: 15px;&quot;&gt;&lt;br style=&quot;font-size: 15px;&quot;&gt;&lt;/font&gt;" style="text;strokeColor=#4C0099;fillColor=none;align=left;verticalAlign=middle;spacingLeft=4;spacingRight=4;overflow=hidden;points=[[0,0.5],[1,0.5]];portConstraint=eastwest;rotatable=0;whiteSpace=wrap;html=1;strokeWidth=2;fontSize=15;" vertex="1" parent="94">
                    <mxGeometry y="70" width="430" height="40" as="geometry"/>
                </mxCell>
                <mxCell id="96" value="Collaborators" style="swimlane;fontStyle=0;childLayout=stackLayout;horizontal=1;startSize=30;horizontalStack=0;resizeParent=1;resizeParentMax=0;resizeLast=0;collapsible=1;marginBottom=0;whiteSpace=wrap;html=1;strokeWidth=2;fillColor=#1ba1e2;fontColor=#ffffff;strokeColor=#006EAF;" vertex="1" parent="93">
                    <mxGeometry x="10" y="160" width="430" height="90" as="geometry"/>
                </mxCell>
                <mxCell id="97" value="&lt;font color=&quot;#000000&quot; style=&quot;font-size: 15px;&quot;&gt;AnalaticsController&lt;br style=&quot;font-size: 15px;&quot;&gt;&lt;/font&gt;" style="text;strokeColor=#4C0099;fillColor=none;align=left;verticalAlign=middle;spacingLeft=4;spacingRight=4;overflow=hidden;points=[[0,0.5],[1,0.5]];portConstraint=eastwest;rotatable=0;whiteSpace=wrap;html=1;strokeWidth=2;fontSize=15;labelBorderColor=default;" vertex="1" parent="96">
                    <mxGeometry y="30" width="430" height="30" as="geometry"/>
                </mxCell>
                <mxCell id="98" value="&lt;font color=&quot;#000000&quot; style=&quot;font-size: 15px;&quot;&gt;ServicesUI&lt;br style=&quot;font-size: 15px;&quot;&gt;&lt;/font&gt;" style="text;strokeColor=#4C0099;fillColor=none;align=left;verticalAlign=middle;spacingLeft=4;spacingRight=4;overflow=hidden;points=[[0,0.5],[1,0.5]];portConstraint=eastwest;rotatable=0;whiteSpace=wrap;html=1;strokeWidth=2;fontSize=15;labelBorderColor=default;" vertex="1" parent="96">
                    <mxGeometry y="60" width="430" height="30" as="geometry"/>
                </mxCell>
                <mxCell id="100" value="MakeOrderUI" style="swimlane;whiteSpace=wrap;html=1;fillColor=#6a00ff;fontColor=#ffffff;strokeColor=#3700CC;strokeWidth=2;" vertex="1" parent="1">
                    <mxGeometry x="2240" y="660" width="460" height="260" as="geometry"/>
                </mxCell>
                <mxCell id="101" value="Resbonsipilities" style="swimlane;fontStyle=0;childLayout=stackLayout;horizontal=1;startSize=30;horizontalStack=0;resizeParent=1;resizeParentMax=0;resizeLast=0;collapsible=1;marginBottom=0;whiteSpace=wrap;html=1;strokeWidth=2;fillColor=#0050ef;fontColor=#ffffff;strokeColor=#001DBC;" vertex="1" parent="100">
                    <mxGeometry x="10" y="30" width="430" height="110" as="geometry"/>
                </mxCell>
                <mxCell id="102" value="&lt;span style=&quot;color: rgb(0, 0, 0); font-size: 15px;&quot;&gt;Create UI display all store products, and the aplity to chose the quantity of the product for each kind.&amp;nbsp;&lt;/span&gt;&lt;font color=&quot;#000000&quot; style=&quot;font-size: 15px;&quot;&gt;&lt;br style=&quot;font-size: 15px;&quot;&gt;&lt;/font&gt;" style="text;strokeColor=#4C0099;fillColor=none;align=left;verticalAlign=middle;spacingLeft=4;spacingRight=4;overflow=hidden;points=[[0,0.5],[1,0.5]];portConstraint=eastwest;rotatable=0;whiteSpace=wrap;html=1;strokeWidth=2;fontSize=15;" vertex="1" parent="101">
                    <mxGeometry y="30" width="430" height="40" as="geometry"/>
                </mxCell>
                <mxCell id="103" value="&lt;span style=&quot;color: rgb(0, 0, 0); font-size: 15px;&quot;&gt;Give the ability to cacher to git a receipt for the client order.&lt;/span&gt;&lt;font color=&quot;#000000&quot; style=&quot;font-size: 15px;&quot;&gt;&lt;br style=&quot;font-size: 15px;&quot;&gt;&lt;/font&gt;" style="text;strokeColor=#4C0099;fillColor=none;align=left;verticalAlign=middle;spacingLeft=4;spacingRight=4;overflow=hidden;points=[[0,0.5],[1,0.5]];portConstraint=eastwest;rotatable=0;whiteSpace=wrap;html=1;strokeWidth=2;fontSize=15;" vertex="1" parent="101">
                    <mxGeometry y="70" width="430" height="40" as="geometry"/>
                </mxCell>
                <mxCell id="104" value="Collaborators" style="swimlane;fontStyle=0;childLayout=stackLayout;horizontal=1;startSize=30;horizontalStack=0;resizeParent=1;resizeParentMax=0;resizeLast=0;collapsible=1;marginBottom=0;whiteSpace=wrap;html=1;strokeWidth=2;fillColor=#1ba1e2;fontColor=#ffffff;strokeColor=#006EAF;" vertex="1" parent="100">
                    <mxGeometry x="10" y="160" width="430" height="90" as="geometry"/>
                </mxCell>
                <mxCell id="105" value="&lt;font color=&quot;#000000&quot; style=&quot;font-size: 15px;&quot;&gt;MakeOrderController&lt;br style=&quot;font-size: 15px;&quot;&gt;&lt;/font&gt;" style="text;strokeColor=#4C0099;fillColor=none;align=left;verticalAlign=middle;spacingLeft=4;spacingRight=4;overflow=hidden;points=[[0,0.5],[1,0.5]];portConstraint=eastwest;rotatable=0;whiteSpace=wrap;html=1;strokeWidth=2;fontSize=15;labelBorderColor=default;" vertex="1" parent="104">
                    <mxGeometry y="30" width="430" height="30" as="geometry"/>
                </mxCell>
                <mxCell id="106" value="&lt;font color=&quot;#000000&quot; style=&quot;font-size: 15px;&quot;&gt;ReceiptUI&lt;br style=&quot;font-size: 15px;&quot;&gt;&lt;/font&gt;" style="text;strokeColor=#4C0099;fillColor=none;align=left;verticalAlign=middle;spacingLeft=4;spacingRight=4;overflow=hidden;points=[[0,0.5],[1,0.5]];portConstraint=eastwest;rotatable=0;whiteSpace=wrap;html=1;strokeWidth=2;fontSize=15;labelBorderColor=default;" vertex="1" parent="104">
                    <mxGeometry y="60" width="430" height="30" as="geometry"/>
                </mxCell>
            </root>
        </mxGraphModel>
    </diagram>
</mxfile>